<svg width="631" height="476" viewBox="0 0 631 476" fill="none" xmlns="http://www.w3.org/2000/svg">
<g clip-path="url(#clip0_1_385)">
<path d="M19.8613 228.416C10.8288 212.11 8.2812 193.084 12.7131 175.034C25.2722 123.977 60.9234 34.3646 155.278 47.053C286.195 64.6758 324.251 69.0815 377.967 52.5553C431.682 36.029 524.559 36.0486 553.654 73.4628C571.291 96.1424 630.865 197.801 592.82 233.047C554.774 268.293 611.238 337.976 612.96 375.009C614.682 412.041 560.369 416.804 492.108 417.93C423.847 419.056 27.0991 406.235 27.0991 406.235C27.0991 406.235 -23.7644 319.967 16.5212 289.151C41.4502 270.094 30.2898 247.253 19.8613 228.416Z" fill="url(#paint0_linear_1_385)"/>
<path d="M60.777 376.107C51.7892 375.784 18.1182 380.543 16.1454 382.369C15.633 382.862 8.26953 405.536 40.6697 434.844C92.5059 481.731 232.002 483.334 277.212 465.499C342.802 439.619 414.673 488.146 563.654 469.574C611.263 463.642 643.079 388.121 621.434 378.331C608.475 372.494 592.959 387.983 579.928 381.185C564.93 373.348 534.538 368.45 515.722 374.462C515.359 374.564 515.047 374.808 514.854 375.143C514.66 375.477 514.599 375.877 514.684 376.257C514.769 376.637 514.993 376.968 515.309 377.181C515.625 377.393 516.008 377.471 516.378 377.397L506.468 380.671C495.456 389.161 497.936 377.88 472.105 376.426L395.945 374.478C368.715 375.327 263.941 380.098 222.947 378.4H200.401C185.356 376.452 146.33 375.529 144.926 375.481L60.777 376.107Z" fill="url(#paint1_linear_1_385)"/>
<path d="M93.1333 416.863L91.0837 299.805H101.844L101.332 416.863H93.1333Z" fill="white"/>
<path d="M327.308 300.365H339.094L334.995 417.423L327.308 417.983V300.365Z" fill="white"/>
<path d="M82.885 279.642L83.3974 298.685L344.218 300.365L344.495 279.065L82.885 279.642Z" fill="#E9EDFA"/>
<path d="M67 269L360.103 270.12V280.762L67.5124 280.202L67 269Z" fill="#BAC6F2"/>
<path d="M524.613 373.964L525.125 421.571L583.541 420.451V373.964H524.613Z" fill="#E9EDFA"/>
<path d="M570.715 420.681L570.751 373.964H567.051" fill="white"/>
<path d="M539.75 373.863C539.75 373.863 538.356 345.629 550.572 337.614C562.788 329.599 552.319 310.904 554.758 300.985C557.197 291.066 568.722 283.818 568.722 276.184C568.722 268.55 567.697 247.188 580.938 240.703C594.179 234.217 604.673 242.613 600.486 255.203C596.3 267.794 593.154 282.295 588.619 286.87C584.084 291.446 585.826 298.699 586.523 307.476C587.22 316.253 580.938 330.748 577.448 336.091C573.959 341.434 577.448 350.591 576.423 360.13C576.423 360.13 574.517 373.482 572.601 373.925C570.684 374.367 539.75 373.863 539.75 373.863Z" fill="#BAC6F2"/>
<path d="M567.031 374.731C567.031 374.731 568.568 361.289 554.953 357.503C541.338 353.717 553.006 344.806 550.28 340.096C547.554 335.385 534.697 331.935 534.697 328.334C534.697 324.732 535.865 314.55 521.062 311.47C506.258 308.389 494.57 312.377 499.243 318.359C503.916 324.34 507.442 331.241 512.489 333.414C517.536 335.587 515.604 339.015 514.826 343.21C514.047 347.405 521.057 354.271 524.956 356.809C528.856 359.346 524.956 363.698 526.124 368.234C526.124 368.234 528.251 374.58 530.388 374.793C532.524 375.006 567.031 374.731 567.031 374.731Z" fill="#BAC6F2"/>
<path d="M555.64 374.726C555.64 374.726 554.553 360.69 564.048 356.708C573.543 352.725 565.406 343.434 567.302 338.499C569.198 333.565 578.15 329.963 578.15 326.177C578.15 322.391 577.335 311.761 587.64 308.54C597.945 305.32 606.087 309.487 602.828 315.749C599.569 322.01 597.135 329.191 593.605 331.493C590.074 333.794 591.437 337.373 591.975 341.737C592.513 346.1 587.635 353.308 584.924 355.963C582.214 358.617 584.924 363.171 584.11 367.909C584.11 367.909 582.629 374.546 581.143 374.765C579.657 374.983 555.64 374.726 555.64 374.726Z" fill="#BAC6F2"/>
<path d="M235.973 104.053C230.979 104.037 226.928 108.091 226.945 113.084L227.261 202.423C227.278 207.386 231.311 211.398 236.274 211.391L491.707 211.004C496.672 210.996 500.693 206.969 500.693 202.004V113.832C500.693 108.872 496.68 104.847 491.72 104.832L235.973 104.053Z" fill="white"/>
<path d="M275.839 137.63V150.848L387.802 150.271V137.63H275.839Z" fill="#BAC6F2"/>
<path d="M275.839 174.399V187.617L387.802 187.041V174.399H275.839Z" fill="#BAC6F2"/>
<path d="M256.915 155.458C261.559 155.458 265.324 151.343 265.324 146.267C265.324 141.191 261.559 137.076 256.915 137.076C252.271 137.076 248.506 141.191 248.506 146.267C248.506 151.343 252.271 155.458 256.915 155.458Z" fill="#BAC6F2"/>
<path d="M256.915 189.785C261.559 189.785 265.324 185.67 265.324 180.594C265.324 175.518 261.559 171.403 256.915 171.403C252.271 171.403 248.506 175.518 248.506 180.594C248.506 185.67 252.271 189.785 256.915 189.785Z" fill="#BAC6F2"/>
<path d="M484.834 152.091H418.363V187.534H484.834V152.091Z" fill="#E9EDFA"/>
<path d="M417.328 185.842C417.328 185.842 422.503 173.453 427.427 174.803C432.352 176.153 433.577 181.804 437.281 179.379C440.986 176.953 443.379 167.208 446.971 165.685C452.095 163.506 453.786 165.909 460.689 170.221C467.591 174.534 470.522 173.582 473.366 170.4C475.964 167.488 480.796 159.585 486.145 156.068" stroke="#BAC6F2" stroke-width="0.698323" stroke-linecap="round" stroke-linejoin="round"/>
<path d="M195.617 105.414H116.72C111.198 105.414 106.72 109.891 106.72 115.414V198.173C106.72 203.696 111.198 208.173 116.72 208.173H195.617C201.14 208.173 205.617 203.696 205.617 198.173V115.414C205.617 109.891 201.14 105.414 195.617 105.414Z" fill="white"/>
<path d="M154.872 195.588C169.003 195.588 180.457 183.067 180.457 167.623C180.457 152.178 169.003 139.658 154.872 139.658C140.742 139.658 129.287 152.178 129.287 167.623C129.287 183.067 140.742 195.588 154.872 195.588Z" stroke="#AE00EB" stroke-width="0.232774" stroke-linecap="round" stroke-linejoin="round"/>
<path d="M138.378 114.286H113.218V120.788H138.378V114.286Z" fill="#BAC6F2"/>
<path d="M138.378 124.485H113.218V130.987H138.378V124.485Z" fill="#BAC6F2"/>
<g clip-path="url(#clip1_1_385)">
<path d="M98.7977 122.151L95.6809 126.15L98.5889 129.882L101.706 125.883L98.7977 122.151Z" fill="#E1E6FB"/>
<path d="M102.24 126.887L99.1235 130.887L102.032 134.618L105.148 130.619L102.24 126.887Z" fill="#E1E6FB"/>
<path d="M102.978 117.417L99.8609 121.417L102.769 125.148L105.886 121.149L102.978 117.417Z" fill="#E1E6FB"/>
<path d="M201.366 185.595L198.249 189.594L201.157 193.326L204.274 189.326L201.366 185.595Z" fill="#E1E6FB"/>
<path d="M204.809 190.328L201.692 194.328L204.6 198.059L207.717 194.06L204.809 190.328Z" fill="#E1E6FB"/>
<path d="M201.119 195.064L198.002 199.063L200.91 202.795L204.027 198.796L201.119 195.064Z" fill="#E1E6FB"/>
<path d="M152.702 104H122.694V123.885H152.702V104Z" fill="#BAC5F4"/>
<path d="M116.053 178.49H104.739V210.684H116.053V178.49Z" fill="#E1E6FB"/>
<path d="M110.15 181.33C110.15 181.33 100.311 160.814 99.8195 155.448C99.3276 150.082 98.8356 148.189 98.8356 148.189C98.8356 148.189 101.787 147.557 102.771 150.398C103.755 153.239 106.707 149.767 107.69 157.342C107.69 157.342 107.936 161.13 110.15 159.867C112.364 158.605 110.15 181.33 110.15 181.33Z" fill="#E1E6FB"/>
<path d="M111.38 184.487C111.38 184.487 104.355 167.758 102.033 161.13C100.311 156.212 98.8356 148.189 98.8356 148.189C98.8356 148.189 95.8693 149.584 96.13 152.608C96.376 155.449 94.1623 156.395 94.6542 159.867C95.1855 163.623 99.4161 164.327 96.8679 167.758C95.3208 169.838 96.4817 173.389 97.6058 175.649C98.3265 177.095 101.881 178.411 101.049 177.859C99.1456 176.596 111.38 184.487 111.38 184.487Z" fill="#BAC5F4"/>
<path d="M106.924 170.459C107.17 170.313 106.173 166.857 104.696 162.74C103.219 158.623 101.822 155.404 101.575 155.55C101.328 155.696 102.325 159.151 103.802 163.268C105.279 167.385 106.677 170.605 106.924 170.459Z" fill="#BAC5F4"/>
<path d="M113.493 194.742C113.493 194.742 98.5134 180.223 96.5359 175.453C94.5583 170.684 93.5621 169.141 93.5621 169.141C93.5621 169.141 96.1325 167.174 97.8542 169.362C99.576 171.549 101.342 166.937 104.404 173.534C104.404 173.534 104.741 178.165 106.955 177.218C109.25 176.246 113.493 194.742 113.493 194.742Z" fill="#E1E6FB"/>
<path d="M115.532 197.112C115.532 197.112 104.247 184.802 100.205 179.711C97.2071 175.924 93.5644 169.147 93.5644 169.147C93.5644 169.147 91.1957 171.833 92.2952 174.513C93.3282 177.038 91.5352 178.96 92.979 181.965C94.5384 185.216 98.6805 183.897 97.2785 188.278C96.4274 190.938 98.5083 193.703 100.203 195.285C101.283 196.295 104.967 195.862 104.038 195.736C101.898 195.468 115.532 197.112 115.532 197.112Z" fill="#F8F8FF"/>
<path d="M105.922 189.944C106.111 189.693 104.203 186.939 101.66 183.793C99.1178 180.647 96.9039 178.3 96.7153 178.55C96.5267 178.801 98.4348 181.555 100.977 184.701C103.52 187.848 105.733 190.195 105.922 189.944Z" fill="#E1E6FB"/>
<path d="M191.565 156.108C191.565 156.108 203.258 131.709 204.008 125.211C204.759 118.712 205.378 116.433 205.378 116.433C205.378 116.433 202.132 115.486 200.931 118.895C199.731 122.304 196.595 117.9 195.213 127.06C195.213 127.06 194.794 131.656 192.389 129.992C189.983 128.329 191.565 156.108 191.565 156.108Z" fill="#E1E6FB"/>
<path d="M190.089 159.867C190.089 159.867 198.518 139.916 201.344 131.984C203.443 126.098 205.386 116.42 205.386 116.42C205.386 116.42 208.62 118.292 208.214 121.953C207.833 125.397 210.248 126.688 209.57 130.873C208.832 135.412 204.119 136.024 206.812 140.342C208.446 142.965 207.024 147.217 205.691 149.903C204.837 151.62 200.848 153.015 201.79 152.393C203.942 150.982 190.089 159.867 190.089 159.867Z" fill="#BAC5F4"/>
<path d="M198.326 133.824C196.531 138.748 195.294 142.896 195.562 143.088C195.83 143.281 197.502 139.443 199.298 134.519C201.094 129.595 202.331 125.448 202.063 125.255C201.795 125.062 200.12 128.897 198.326 133.824Z" fill="#BAC5F4"/>
<path d="M187.344 172.234C187.344 172.234 204.503 155.429 206.879 149.742C209.255 144.054 210.416 142.242 210.416 142.242C210.416 142.242 207.644 139.717 205.651 142.264C203.659 144.811 201.881 139.108 198.233 146.964C198.233 146.964 197.682 152.579 195.264 151.298C192.758 149.969 187.344 172.234 187.344 172.234Z" fill="#F8F8FF"/>
<path d="M184.993 174.996C184.993 174.996 197.972 160.672 202.646 154.713C206.114 150.294 210.416 142.242 210.416 142.242C210.416 142.242 212.937 145.648 211.614 148.871C210.369 151.891 212.285 154.325 210.571 157.898C208.716 161.761 204.176 159.921 205.565 165.337C206.406 168.623 203.986 171.871 202.055 173.695C200.826 174.863 196.755 174.121 197.79 174.011C200.174 173.787 184.993 174.996 184.993 174.996Z" fill="#E1E6FB"/>
<path d="M202.235 158.339C199.421 162.178 197.316 165.539 197.522 165.845C197.729 166.151 200.181 163.285 202.995 159.444C205.809 155.603 207.914 152.245 207.708 151.938C207.501 151.632 205.049 154.501 202.235 158.339Z" fill="white"/>
<path d="M136.96 178.49H118.021V210.684H136.96V178.49Z" fill="#BAC5F4"/>
<path d="M178.283 178.805H159.343V211H178.283V178.805Z" fill="#E1E6FB"/>
<path d="M166.722 104H154.424V124.201H166.722V104Z" fill="#E1E6FB"/>
<path d="M195.254 120.729H109.412V201.847H195.254V120.729Z" fill="#BAC5F4"/>
<path d="M195.254 120.729H111.626V201.847H195.254V120.729Z" fill="#F8F8FF"/>
<path d="M194.271 121.991H112.364V127.673H194.271V121.991Z" fill="white"/>
<path d="M194.271 127.357H112.364V200.584H194.271V127.357Z" fill="#E1E6FB"/>
<path d="M135.977 130.197H125.892V144.716H135.977V130.197Z" fill="#BAC5F4"/>
<path d="M147.291 130.197H137.206V144.716H147.291V130.197Z" fill="#BAC5F4"/>
<path d="M158.359 130.197H148.275V144.716H158.359V130.197Z" fill="#BAC5F4"/>
<path d="M169.674 130.197H159.589V144.716H169.674V130.197Z" fill="white"/>
<path d="M180.742 130.197H170.658V144.716H180.742V130.197Z" fill="white"/>
<path d="M192.057 130.197H181.972V144.716H192.057V130.197Z" fill="white"/>
<path d="M135.977 146.926H125.892V161.445H135.977V146.926Z" fill="white"/>
<path d="M147.291 146.926H137.206V161.445H147.291V146.926Z" fill="white"/>
<path d="M158.359 146.926H148.275V161.445H158.359V146.926Z" fill="#F8F8FF"/>
<path d="M169.674 146.926H159.589V161.445H169.674V146.926Z" fill="white"/>
<path d="M180.742 146.926H170.658V161.445H180.742V146.926Z" fill="white"/>
<path d="M192.057 146.926H181.972V161.445H192.057V146.926Z" fill="white"/>
<path d="M135.977 163.023H125.892V177.543H135.977V163.023Z" fill="white"/>
<path d="M147.291 163.023H137.206V177.543H147.291V163.023Z" fill="white"/>
<path d="M158.359 163.023H148.275V177.543H158.359V163.023Z" fill="#F8F8FF"/>
<path d="M169.674 163.023H159.589V177.543H169.674V163.023Z" fill="white"/>
<path d="M180.742 163.023H170.658V177.543H180.742V163.023Z" fill="#F8F8FF"/>
<path d="M192.057 163.023H181.972V177.543H192.057V163.023Z" fill="white"/>
<path d="M136.223 179.437H126.138V193.956H136.223V179.437Z" fill="#F8F8FF"/>
<path d="M147.537 179.437H137.452V193.956H147.537V179.437Z" fill="#F8F8FF"/>
<path d="M158.605 179.437H148.521V193.956H158.605V179.437Z" fill="white"/>
<path d="M169.92 179.437H159.835V193.956H169.92V179.437Z" fill="white"/>
<path d="M180.988 179.437H170.904V193.956H180.988V179.437Z" fill="#BAC5F4"/>
<path d="M192.303 179.437H182.218V193.956H192.303V179.437Z" fill="white"/>
<path d="M114.7 126.094C115.176 126.094 115.561 125.6 115.561 124.989C115.561 124.379 115.176 123.885 114.7 123.885C114.225 123.885 113.84 124.379 113.84 124.989C113.84 125.6 114.225 126.094 114.7 126.094Z" fill="#BAC5F4"/>
<path d="M117.406 126.094C117.882 126.094 118.267 125.6 118.267 124.989C118.267 124.379 117.882 123.885 117.406 123.885C116.931 123.885 116.545 124.379 116.545 124.989C116.545 125.6 116.931 126.094 117.406 126.094Z" fill="#BAC5F4"/>
<path d="M120.112 126.094C120.587 126.094 120.973 125.6 120.973 124.989C120.973 124.379 120.587 123.885 120.112 123.885C119.636 123.885 119.251 124.379 119.251 124.989C119.251 125.6 119.636 126.094 120.112 126.094Z" fill="#BAC5F4"/>
<path d="M122.817 146.61H115.93C115.319 146.61 114.823 147.246 114.823 148.031C114.823 148.815 115.319 149.451 115.93 149.451H122.817C123.429 149.451 123.924 148.815 123.924 148.031C123.924 147.246 123.429 146.61 122.817 146.61Z" fill="white"/>
<path d="M122.817 163.023H115.93C115.319 163.023 114.823 163.659 114.823 164.444C114.823 165.228 115.319 165.864 115.93 165.864H122.817C123.429 165.864 123.924 165.228 123.924 164.444C123.924 163.659 123.429 163.023 122.817 163.023Z" fill="white"/>
<path d="M122.817 179.437H115.93C115.319 179.437 114.823 180.072 114.823 180.857C114.823 181.641 115.319 182.277 115.93 182.277H122.817C123.429 182.277 123.924 181.641 123.924 180.857C123.924 180.072 123.429 179.437 122.817 179.437Z" fill="white"/>
<path d="M131.672 147.873H127.737C127.261 147.873 126.876 148.368 126.876 148.978C126.876 149.588 127.261 150.082 127.737 150.082H131.672C132.148 150.082 132.533 149.588 132.533 148.978C132.533 148.368 132.148 147.873 131.672 147.873Z" fill="#BAC5F4"/>
<path d="M129.212 151.976H127.491C127.151 151.976 126.876 152.329 126.876 152.765C126.876 153.201 127.151 153.554 127.491 153.554H129.212C129.552 153.554 129.827 153.201 129.827 152.765C129.827 152.329 129.552 151.976 129.212 151.976Z" fill="#BAC5F4"/>
<path d="M143.11 147.873H139.174C138.767 147.873 138.436 148.297 138.436 148.82C138.436 149.343 138.767 149.767 139.174 149.767H143.11C143.517 149.767 143.847 149.343 143.847 148.82C143.847 148.297 143.517 147.873 143.11 147.873Z" fill="#BAC5F4"/>
<path d="M176.561 181.646H172.626C172.218 181.646 171.888 182.07 171.888 182.593C171.888 183.116 172.218 183.54 172.626 183.54H176.561C176.968 183.54 177.299 183.116 177.299 182.593C177.299 182.07 176.968 181.646 176.561 181.646Z" fill="white"/>
<path d="M187.629 164.602H183.694C183.286 164.602 182.956 165.026 182.956 165.548C182.956 166.071 183.286 166.495 183.694 166.495H187.629C188.037 166.495 188.367 166.071 188.367 165.548C188.367 165.026 188.037 164.602 187.629 164.602Z" fill="#F5F5FC"/>
<path d="M187.383 148.188H183.448C183.04 148.188 182.71 148.612 182.71 149.135C182.71 149.658 183.04 150.082 183.448 150.082H187.383C187.791 150.082 188.121 149.658 188.121 149.135C188.121 148.612 187.791 148.188 187.383 148.188Z" fill="#F5F5FC"/>
<path d="M176.315 148.188H172.38C171.972 148.188 171.642 148.612 171.642 149.135C171.642 149.658 171.972 150.082 172.38 150.082H176.315C176.723 150.082 177.053 149.658 177.053 149.135C177.053 148.612 176.723 148.188 176.315 148.188Z" fill="#F5F5FC"/>
<path d="M139.42 153.554C139.963 153.554 140.404 152.989 140.404 152.292C140.404 151.595 139.963 151.029 139.42 151.029C138.877 151.029 138.436 151.595 138.436 152.292C138.436 152.989 138.877 153.554 139.42 153.554Z" fill="#BAC5F4"/>
<path d="M161.803 151.345C162.346 151.345 162.787 150.78 162.787 150.082C162.787 149.385 162.346 148.82 161.803 148.82C161.26 148.82 160.819 149.385 160.819 150.082C160.819 150.78 161.26 151.345 161.803 151.345Z" fill="#BAC5F4"/>
<path d="M165.247 151.345C165.79 151.345 166.23 150.78 166.23 150.082C166.23 149.385 165.79 148.82 165.247 148.82C164.703 148.82 164.263 149.385 164.263 150.082C164.263 150.78 164.703 151.345 165.247 151.345Z" fill="#BAC5F4"/>
<path d="M165.247 167.127C165.79 167.127 166.23 166.561 166.23 165.864C166.23 165.167 165.79 164.602 165.247 164.602C164.703 164.602 164.263 165.167 164.263 165.864C164.263 166.561 164.703 167.127 165.247 167.127Z" fill="#BAC5F4"/>
<path d="M161.803 167.127C162.346 167.127 162.787 166.561 162.787 165.864C162.787 165.167 162.346 164.602 161.803 164.602C161.26 164.602 160.819 165.167 160.819 165.864C160.819 166.561 161.26 167.127 161.803 167.127Z" fill="#BAC5F4"/>
<path d="M165.001 183.224C165.544 183.224 165.984 182.659 165.984 181.961C165.984 181.264 165.544 180.699 165.001 180.699C164.457 180.699 164.017 181.264 164.017 181.961C164.017 182.659 164.457 183.224 165.001 183.224Z" fill="#BAC5F4"/>
<path d="M161.557 183.224C162.1 183.224 162.541 182.659 162.541 181.961C162.541 181.264 162.1 180.699 161.557 180.699C161.014 180.699 160.573 181.264 160.573 181.961C160.573 182.659 161.014 183.224 161.557 183.224Z" fill="#BAC5F4"/>
<path d="M131.549 183.54C132.093 183.54 132.533 182.974 132.533 182.277C132.533 181.58 132.093 181.015 131.549 181.015C131.006 181.015 130.565 181.58 130.565 182.277C130.565 182.974 131.006 183.54 131.549 183.54Z" fill="#BAC5F4"/>
<path d="M128.106 183.54C128.649 183.54 129.089 182.974 129.089 182.277C129.089 181.58 128.649 181.015 128.106 181.015C127.562 181.015 127.122 181.58 127.122 182.277C127.122 182.974 127.562 183.54 128.106 183.54Z" fill="#BAC5F4"/>
<path d="M161.803 134.3C162.346 134.3 162.787 133.735 162.787 133.038C162.787 132.341 162.346 131.775 161.803 131.775C161.26 131.775 160.819 132.341 160.819 133.038C160.819 133.735 161.26 134.3 161.803 134.3Z" fill="#BAC5F4"/>
<path d="M150.243 134.3C150.786 134.3 151.226 133.735 151.226 133.038C151.226 132.341 150.786 131.775 150.243 131.775C149.699 131.775 149.259 132.341 149.259 133.038C149.259 133.735 149.699 134.3 150.243 134.3Z" fill="white"/>
<path d="M153.686 134.3C154.229 134.3 154.67 133.735 154.67 133.038C154.67 132.341 154.229 131.775 153.686 131.775C153.143 131.775 152.702 132.341 152.702 133.038C152.702 133.735 153.143 134.3 153.686 134.3Z" fill="white"/>
<path d="M139.174 134.3C139.717 134.3 140.158 133.735 140.158 133.038C140.158 132.341 139.717 131.775 139.174 131.775C138.631 131.775 138.19 132.341 138.19 133.038C138.19 133.735 138.631 134.3 139.174 134.3Z" fill="white"/>
<path d="M142.618 134.3C143.161 134.3 143.601 133.735 143.601 133.038C143.601 132.341 143.161 131.775 142.618 131.775C142.074 131.775 141.634 132.341 141.634 133.038C141.634 133.735 142.074 134.3 142.618 134.3Z" fill="white"/>
<path d="M128.106 134.3C128.649 134.3 129.089 133.735 129.089 133.038C129.089 132.341 128.649 131.775 128.106 131.775C127.562 131.775 127.122 132.341 127.122 133.038C127.122 133.735 127.562 134.3 128.106 134.3Z" fill="white"/>
<path d="M131.549 134.3C132.093 134.3 132.533 133.735 132.533 133.038C132.533 132.341 132.093 131.775 131.549 131.775C131.006 131.775 130.565 132.341 130.565 133.038C130.565 133.735 131.006 134.3 131.549 134.3Z" fill="white"/>
<path d="M166.321 148.069V146.879L171.571 138.573H172.434V140.416H171.851L167.884 146.692V146.786H174.954V148.069H166.321ZM171.944 150.519V147.707V147.153V138.573H173.32V150.519H171.944Z" fill="#BAC5F4"/>
<path d="M144.71 150.519V149.469L148.653 145.152C149.116 144.647 149.497 144.208 149.796 143.834C150.096 143.457 150.317 143.103 150.461 142.773C150.609 142.438 150.683 142.088 150.683 141.723C150.683 141.303 150.582 140.939 150.38 140.632C150.181 140.325 149.909 140.088 149.563 139.921C149.217 139.753 148.828 139.67 148.396 139.67C147.938 139.67 147.537 139.765 147.195 139.956C146.857 140.142 146.594 140.405 146.407 140.743C146.225 141.081 146.133 141.478 146.133 141.933H144.757C144.757 141.233 144.918 140.618 145.241 140.09C145.564 139.561 146.003 139.149 146.559 138.853C147.119 138.558 147.747 138.41 148.443 138.41C149.143 138.41 149.763 138.558 150.304 138.853C150.844 139.149 151.268 139.547 151.575 140.049C151.882 140.55 152.036 141.108 152.036 141.723C152.036 142.162 151.956 142.592 151.797 143.012C151.641 143.428 151.369 143.893 150.98 144.406C150.595 144.915 150.061 145.537 149.376 146.272L146.693 149.142V149.235H152.246V150.519H144.71Z" fill="white"/>
<path d="M133.607 166.868L138.949 156.299V156.206H132.79V154.923H140.443V156.276L135.123 166.868H133.607Z" fill="#BAC5F4"/>
<path d="M168.668 154.942V166.887H167.222V156.458H167.152L164.235 158.395V156.925L167.222 154.942H168.668ZM168.365 187.051C167.486 187.051 166.738 186.811 166.119 186.333C165.501 185.851 165.029 185.153 164.702 184.239C164.375 183.321 164.212 182.213 164.212 180.915C164.212 179.624 164.375 178.521 164.702 177.607C165.032 176.69 165.507 175.99 166.125 175.508C166.747 175.022 167.494 174.778 168.365 174.778C169.236 174.778 169.981 175.022 170.599 175.508C171.221 175.99 171.695 176.69 172.022 177.607C172.352 178.521 172.518 179.624 172.518 180.915C172.518 182.213 172.354 183.321 172.028 184.239C171.701 185.153 171.229 185.851 170.61 186.333C169.992 186.811 169.244 187.051 168.365 187.051ZM168.365 185.767C169.236 185.767 169.912 185.347 170.395 184.507C170.877 183.668 171.118 182.47 171.118 180.915C171.118 179.88 171.007 178.999 170.785 178.272C170.568 177.545 170.253 176.991 169.841 176.61C169.432 176.229 168.94 176.038 168.365 176.038C167.502 176.038 166.827 176.464 166.341 177.316C165.855 178.163 165.612 179.363 165.612 180.915C165.612 181.949 165.721 182.828 165.938 183.551C166.156 184.274 166.469 184.824 166.878 185.202C167.29 185.579 167.785 185.767 168.365 185.767Z" fill="#BAC5F4"/>
<path d="M158.251 171.282V183.228H156.805V172.799H156.735L153.819 174.735V173.265L156.805 171.282H158.251ZM157.785 203.391C157.1 203.391 156.484 203.255 155.936 202.983C155.388 202.71 154.948 202.337 154.618 201.863C154.287 201.388 154.106 200.848 154.075 200.241H155.475C155.53 200.782 155.775 201.229 156.21 201.583C156.649 201.933 157.174 202.108 157.785 202.108C158.275 202.108 158.71 201.993 159.091 201.764C159.476 201.534 159.778 201.219 159.995 200.819C160.217 200.414 160.328 199.957 160.328 199.448C160.328 198.927 160.213 198.462 159.984 198.054C159.758 197.642 159.447 197.317 159.051 197.08C158.654 196.843 158.201 196.722 157.692 196.718C157.326 196.714 156.951 196.771 156.566 196.887C156.181 197 155.864 197.146 155.615 197.325L154.262 197.162L154.985 191.282H161.191V192.565H156.198L155.778 196.088H155.848C156.093 195.894 156.401 195.732 156.77 195.604C157.139 195.476 157.524 195.412 157.925 195.412C158.656 195.412 159.307 195.587 159.879 195.937C160.454 196.283 160.905 196.757 161.232 197.36C161.563 197.963 161.728 198.651 161.728 199.425C161.728 200.187 161.557 200.867 161.214 201.466C160.876 202.061 160.41 202.532 159.815 202.878C159.22 203.22 158.543 203.391 157.785 203.391Z" fill="#BAC5F4"/>
<path d="M191.457 171.913V183.859H190.01V173.43H189.94L187.024 175.366V173.897L190.01 171.913H191.457ZM191.084 204.022C190.283 204.022 189.575 203.88 188.961 203.596C188.35 203.309 187.874 202.914 187.531 202.412C187.189 201.907 187.02 201.331 187.024 200.686C187.02 200.18 187.119 199.714 187.322 199.286C187.524 198.854 187.8 198.495 188.15 198.207C188.504 197.915 188.898 197.731 189.334 197.653V197.583C188.762 197.435 188.307 197.114 187.969 196.62C187.631 196.123 187.463 195.557 187.467 194.923C187.463 194.317 187.617 193.774 187.928 193.296C188.239 192.818 188.667 192.44 189.211 192.164C189.76 191.888 190.384 191.75 191.084 191.75C191.776 191.75 192.394 191.888 192.938 192.164C193.483 192.44 193.911 192.818 194.222 193.296C194.537 193.774 194.696 194.317 194.7 194.923C194.696 195.557 194.523 196.123 194.181 196.62C193.842 197.114 193.393 197.435 192.833 197.583V197.653C193.265 197.731 193.654 197.915 194 198.207C194.346 198.495 194.622 198.854 194.828 199.286C195.034 199.714 195.139 200.18 195.143 200.686C195.139 201.331 194.964 201.907 194.618 202.412C194.276 202.914 193.8 203.309 193.189 203.596C192.583 203.88 191.881 204.022 191.084 204.022ZM191.084 202.739C191.624 202.739 192.091 202.652 192.483 202.477C192.876 202.302 193.18 202.055 193.393 201.736C193.607 201.417 193.716 201.044 193.72 200.616C193.716 200.165 193.599 199.766 193.37 199.42C193.141 199.074 192.828 198.802 192.431 198.604C192.038 198.405 191.589 198.306 191.084 198.306C190.574 198.306 190.119 198.405 189.719 198.604C189.322 198.802 189.009 199.074 188.78 199.42C188.554 199.766 188.443 200.165 188.447 200.616C188.443 201.044 188.546 201.417 188.756 201.736C188.97 202.055 189.275 202.302 189.672 202.477C190.069 202.652 190.539 202.739 191.084 202.739ZM191.084 197.07C191.511 197.07 191.89 196.984 192.221 196.813C192.555 196.642 192.818 196.403 193.008 196.096C193.199 195.788 193.296 195.429 193.3 195.016C193.296 194.612 193.201 194.26 193.014 193.961C192.828 193.657 192.569 193.424 192.238 193.261C191.908 193.094 191.523 193.01 191.084 193.01C190.636 193.01 190.246 193.094 189.911 193.261C189.577 193.424 189.318 193.657 189.135 193.961C188.953 194.26 188.863 194.612 188.867 195.016C188.863 195.429 188.955 195.788 189.141 196.096C189.332 196.403 189.594 196.642 189.929 196.813C190.263 196.984 190.648 197.07 191.084 197.07Z" fill="#BAC5F4"/>
<path d="M141.2 198.817V197.767L145.143 193.451C145.606 192.945 145.987 192.506 146.286 192.133C146.586 191.755 146.807 191.402 146.951 191.071C147.099 190.737 147.173 190.387 147.173 190.021C147.173 189.601 147.072 189.238 146.87 188.93C146.671 188.623 146.399 188.386 146.053 188.219C145.707 188.052 145.318 187.968 144.886 187.968C144.428 187.968 144.027 188.063 143.685 188.254C143.347 188.44 143.084 188.703 142.898 189.041C142.715 189.38 142.623 189.776 142.623 190.231H141.247C141.247 189.531 141.408 188.917 141.731 188.388C142.054 187.859 142.493 187.447 143.049 187.151C143.609 186.856 144.237 186.708 144.933 186.708C145.633 186.708 146.253 186.856 146.794 187.151C147.334 187.447 147.758 187.846 148.065 188.347C148.372 188.849 148.526 189.407 148.526 190.021C148.526 190.461 148.446 190.89 148.287 191.31C148.131 191.726 147.859 192.191 147.47 192.704C147.085 193.214 146.551 193.836 145.866 194.571L143.183 197.44V197.534H148.736V198.817H141.2ZM145.096 218.98C144.218 218.98 143.469 218.741 142.851 218.263C142.233 217.781 141.76 217.083 141.433 216.169C141.107 215.251 140.944 214.143 140.944 212.844C140.944 211.553 141.107 210.451 141.433 209.537C141.764 208.619 142.238 207.919 142.857 207.437C143.479 206.951 144.225 206.708 145.096 206.708C145.967 206.708 146.712 206.951 147.33 207.437C147.953 207.919 148.427 208.619 148.754 209.537C149.084 210.451 149.249 211.553 149.249 212.844C149.249 214.143 149.086 215.251 148.759 216.169C148.433 217.083 147.96 217.781 147.342 218.263C146.724 218.741 145.975 218.98 145.096 218.98ZM145.096 217.697C145.967 217.697 146.644 217.277 147.126 216.437C147.608 215.597 147.849 214.4 147.849 212.844C147.849 211.81 147.739 210.929 147.517 210.202C147.299 209.475 146.984 208.921 146.572 208.54C146.164 208.159 145.672 207.968 145.096 207.968C144.233 207.968 143.559 208.394 143.072 209.245C142.586 210.093 142.343 211.293 142.343 212.844C142.343 213.879 142.452 214.757 142.67 215.481C142.888 216.204 143.201 216.754 143.609 217.131C144.021 217.508 144.517 217.697 145.096 217.697Z" fill="#BAC5F4"/>
</g>
<g clip-path="url(#clip2_1_385)">
<path d="M50.0854 445.728H48.8049L40.0124 445.813C40.0124 445.813 38.1343 454.435 37.1953 458.021C37.11 458.277 36.9392 458.874 36.8539 459.301C36.6831 459.899 36.6831 460.582 36.6831 461.179C36.8539 464.423 38.1343 467.24 41.0367 468.691C44.2806 470.313 46.7562 471.85 50.0854 468.691C53.4146 465.533 53.9268 463.569 52.6463 458.191C51.3659 452.813 50.9391 445.899 50.0854 445.728Z" fill="#4B49BB"/>
<path d="M85.3411 456.655C79.5363 454.777 75.6948 446.923 75.6948 446.923L65.7925 446.326C65.7925 446.326 65.2803 454.35 65.0242 458.362C64.6828 463.74 65.6218 466.216 69.1218 465.874C73.8168 465.447 92.8532 467.24 95.8409 465.277C99.6823 462.801 90.719 458.362 85.3411 456.655Z" fill="#4B49BB"/>
<path d="M87.0484 370.778C87.4752 374.79 84.4874 395.96 84.4874 399.973C84.4874 403.985 75.6095 446.923 75.6095 446.923L65.4511 446.582C65.4511 446.582 67.7559 383.156 67.4998 380.083C67.2437 377.009 54.5244 340.217 54.5244 340.217C54.5244 340.217 53.5854 349.949 53.5854 353.022C53.5854 356.095 50.1708 445.728 50.1708 445.728H40.0124L25.5004 313.413L24.1345 302.145L79.0241 303.51C79.0241 303.51 86.5362 366.68 87.0484 370.778Z" fill="url(#paint2_linear_1_385)"/>
<path d="M93.7922 276.45L89.1825 280.377L90.6337 286.523L92.5971 289.255C92.4263 289.511 91.9995 287.889 94.0483 289.084L98.0604 288.828L101.134 284.816C101.134 284.816 99.5116 266.292 92.341 253.402L93.7922 276.45ZM88.1581 251.95L87.7313 249.389L86.6215 249.219L88.1581 251.95ZM49.4879 183.744C52.0488 182.634 61.9511 177.939 63.4023 178.964C65.6218 180.842 67.2437 183.317 67.9266 186.134C68.3535 188.098 69.89 190.488 70.1461 190.146C71.2559 189.037 70.9998 193.219 70.9998 194.5C70.6583 196.293 69.89 198.085 68.6096 199.451C67.7559 200.134 66.9023 202.439 66.4754 204.231C66.0486 206.195 65.195 210.122 65.9633 211.744C66.8169 213.707 77.2314 232.573 86.5362 249.304L34.3783 239.914L17.9029 274.743L25.3296 280.718L23.1955 287.804L21.8297 288.06C21.8297 288.06 20.6346 290.877 19.3541 289.596C18.3297 288.572 16.7931 289.084 16.1956 289.34C16.0249 289.426 15.7688 289.426 15.598 289.426L13.8907 289.084L12.781 279.694L28.8296 230.268C28.8296 230.268 48.122 212.939 49.2318 212.256C50.3415 211.573 50.683 206.963 49.6586 204.744C48.5488 202.524 47.3537 200.39 45.9879 198.256C45.1343 196.975 44.1099 192.11 44.1099 189.976C44.1099 187.841 45.3903 188.61 45.3903 188.61C45.3903 188.61 46.5855 184.427 49.1464 183.317C50.0854 182.72 63.4023 178.964 63.4023 178.964" fill="url(#paint3_linear_1_385)"/>
<path d="M28.9149 219.682C26.354 221.39 24.0492 223.695 23.1955 226.682C22.3419 229.67 7.82985 257.584 7.14693 259.633C6.46401 261.682 3.73234 269.706 5.2689 278.413C6.80547 287.121 13.3786 289.169 14.4883 289.169C15.0859 289.169 13.9761 284.645 13.72 281.657C13.6346 280.548 14.5737 277.816 14.8298 276.706C15.2566 275.084 16.6224 275.511 16.6224 274.06C16.6224 271.328 23.4516 261.853 26.0125 256.56C28.5735 251.267 33.3539 250.328 34.2076 248.024C35.0612 245.719 27.0369 295.486 27.0369 295.486C27.0369 295.486 26.8662 304.194 28.4881 305.047C30.0247 305.815 48.3781 312.815 52.6464 314.437C53.0732 314.608 53.5854 314.352 53.8415 313.925L56.5731 306.157C56.5731 306.072 56.6585 305.986 56.7439 306.072C56.8292 306.072 56.8292 306.157 56.8292 306.157L59.3902 314.608C59.4755 315.035 59.9877 315.291 60.4145 315.206L83.0362 310.34C83.0362 310.34 82.6947 268.596 83.1216 261.597C83.463 254.767 82.6094 250.926 83.8899 252.804C85.2557 254.853 96.5238 266.035 96.5238 269.194C96.4385 270.987 97.2921 272.609 98.7433 273.633L98.1458 288.999C98.1458 288.999 104.548 281.913 105.146 277.901C105.743 273.889 105.999 271.755 104.121 267.743C102.243 263.731 91.8288 227.28 91.8288 227.28C91.8288 227.28 90.8044 222.841 83.1216 220.536C75.4387 218.231 69.7193 214.817 68.3535 214.902C66.9876 214.987 62.7194 223.012 60.8414 225.316C59.9877 226.341 60.1585 226.853 59.0487 228.39C58.4512 229.158 57.3414 229.329 56.5731 228.731C56.4024 228.56 56.2317 228.475 56.1463 228.219C55.5488 227.28 55.0366 226.341 54.5244 225.402C53.6707 223.695 47.0976 214.048 47.0976 214.048C47.0976 214.048 31.4759 217.975 28.9149 219.682Z" fill="url(#paint4_linear_1_385)"/>
<path d="M63.4023 178.963C63.4023 178.963 50.1708 183.402 47.7806 185.537C46.244 186.902 45.3903 188.61 45.3903 188.61C45.3903 188.61 44.1099 188.097 44.1099 189.976C44.1099 189.976 43.5977 188.695 43.1709 187.927C42.744 187.158 41.1221 183.061 42.6587 179.817C44.1952 176.573 46.0733 174.695 46.8415 174.183C47.6098 173.671 52.0488 169.829 56.4024 170C60.756 170.171 63.573 173.159 64.3413 173.842C65.195 174.524 66.7315 175.805 67.7559 176.061C68.7803 176.403 71.3412 179.817 71.512 182.378C71.6827 184.939 70.7437 190.488 70.7437 190.488C70.7437 190.488 70.6583 189.719 70.1461 190.146C69.6339 190.573 68.1827 187.841 67.7559 185.878C67.3291 183.915 63.4023 178.963 63.4023 178.963Z" fill="url(#paint5_linear_1_385)"/>
<g opacity="0.07">
<path d="M67.7559 214.987C67.6705 214.731 69.2925 215.926 67.4145 214.561C64.7682 212.682 65.9633 204.658 65.9633 204.658C65.0242 206.707 63.3169 208.329 61.1828 209.183C57.7682 210.463 56.7439 209.524 61.9511 212.512C67.1584 215.5 64.4267 216.524 64.0852 220.451" fill="white"/>
</g>
<g opacity="0.07">
<path d="M34.2076 252.718L27.0369 296.254C27.0369 296.254 27.1223 304.023 28.4881 305.132C29.854 306.242 34.4637 307.01 35.488 307.779C36.5124 308.547 47.6098 312.218 44.7074 305.986C44.0245 304.62 29.0857 296.255 35.8295 287.462C42.5733 278.669 41.2928 266.548 38.1343 258.096C36.2563 253.145 35.3173 247.853 35.5734 242.56L34.2076 252.718Z" fill="black"/>
</g>
<path opacity="0.07" d="M46.244 311.364C46.244 311.364 40.1831 343.632 43.3416 356.522C48.122 376.071 41.2075 402.534 41.2075 415.253C41.2075 423.448 44.4513 446.326 44.6221 455.545C44.7074 458.362 46.6708 463.74 45.2196 465.021C44.5367 465.533 40.6953 464.338 38.5612 463.313C37.4514 462.801 36.7685 461.606 36.9392 460.411L38.2197 454.862L40.0124 447.606L27.4637 329.547C27.4637 329.547 23.3662 303.254 25.6711 303.169C27.9759 303.084 46.244 311.364 46.244 311.364Z" fill="black"/>
<path d="M35.1466 251.95L54.7805 245.975L55.6341 301.462L37.7075 308.291L35.1466 251.95Z" fill="white"/>
<path d="M54.7805 245.975L77.829 252.804V307.437L55.6341 301.462L54.7805 245.975Z" fill="white"/>
<path d="M77.829 252.804L100.024 245.975L96.9507 274.828L91.4873 278.84C90.8898 279.267 90.5483 279.864 90.4629 280.547L90.2922 281.572C90.2068 282.084 90.2922 282.596 90.4629 283.108L91.402 285.413C91.7434 286.181 92.2556 286.864 93.0239 287.291L96.1824 288.998L96.0117 300.693L77.829 307.437V252.804Z" fill="#E1E6FC"/>
<path d="M35.1466 251.95L13.6347 245.292L16.6224 274.572L22.0004 278.669C22.5126 279.096 22.9394 279.694 23.0248 280.376L23.1955 281.401C23.2809 281.913 23.1955 282.511 23.0248 282.937L22.1711 285.328C21.8297 286.096 21.3175 286.779 20.5492 287.206L17.4761 288.913L17.6468 301.291L37.7075 308.291L35.1466 251.95Z" fill="#E1E6FC"/>
<path d="M54.3537 246.145L54.7805 245.975L55.1219 246.06L56.1463 301.632L55.6341 301.462L55.0366 301.632L54.3537 246.145Z" fill="#E1E6FC"/>
</g>
<g clip-path="url(#clip3_1_385)">
<path d="M247.86 420.57C247.766 418.041 247.486 415.459 247.019 412.982L238.149 413.193C238.149 413.193 237.869 418.673 233.854 419.569L232.174 420.148C230.073 420.622 227.552 421.466 226.105 422.572C226.058 422.151 226.058 421.782 226.058 421.413C225.918 418.673 225.451 415.986 224.704 413.351L214.76 413.773C214.76 413.773 215.274 419.042 211.259 419.938L209.532 420.464C205.75 421.307 200.755 423.257 202.856 426.208C204.49 428.421 221.436 429.422 224.471 428.789C225.638 428.579 226.058 427.63 226.198 426.418C229.793 428.21 243.985 428.631 246.739 427.946C248.933 427.367 247.953 423.468 247.86 420.57Z" fill="#4B49BB"/>
<path d="M206.03 341.218C205.61 345.117 208.271 365.403 208.271 369.25C208.271 373.096 214.667 414.458 214.667 414.458L224.798 413.931C224.798 413.931 222.79 353.074 222.977 350.123C223.164 347.172 234.275 311.817 234.275 311.817C234.275 311.817 235.068 321.143 235.068 324.147C235.068 327.15 238.149 413.193 238.149 413.193H246.973L259.531 286.421L259.297 283.997L212.94 276.726C212.986 276.673 206.451 337.372 206.03 341.218Z" fill="url(#paint6_linear_1_385)"/>
<path d="M268.494 259.864L259.344 287.896L257.757 301.595L265.46 293.955C265.88 293.533 266.72 291.373 267.187 290.267L271.809 275.671L275.217 252.382C275.217 252.382 270.035 241.844 263.966 229.462L268.494 259.864ZM263.966 229.462L263.592 226.986L262.659 226.775L263.966 229.462ZM232.921 158.805C231.473 158.647 230.026 158.647 228.579 158.91C228.159 159.015 226.805 162.124 225.871 164.337C224.658 167.182 224.424 171.714 224.424 174.612C224.424 178.247 227.645 182.357 231.66 185.255C233.434 186.52 232.314 193.211 231.427 193.844C230.54 194.476 213.5 208.702 213.5 208.702L201.222 201.115L167.796 168.763L166.115 166.392C166.115 166.392 162.381 148.425 160.98 147.687C158.552 146.422 156.778 151.006 154.538 154.8C153.277 156.96 153.277 163.336 154.771 165.286L161.26 174.19L197.02 207.332L206.964 210.915L218.262 217.87L262.612 226.828C254.722 210.704 245.852 192.632 245.059 190.735C244.358 189.207 244.218 187.468 244.592 185.835C245.152 183.569 245.946 181.356 246.926 179.248C247.626 178.142 248 176.034 248.187 174.822C248.373 173.611 248.373 173.979 247.44 175.033C247.159 175.297 246.366 175.349 245.992 173.505C245.619 171.661 240.717 169.027 238.336 166.708C238.336 166.708 235.815 165.97 233.247 164.969" fill="url(#paint7_linear_1_385)"/>
<path d="M217.235 195.266C214.387 195.582 212.706 195.003 209.345 194.16C206.637 193.422 201.642 192.21 199.915 191.42C192.492 188.1 167.282 168.184 166.255 166.287C165.695 165.233 161.307 171.24 161.027 173.927C160.98 174.664 168.59 183.938 171.764 187.995C172.324 188.733 177.086 194.371 178.813 195.846C182.642 199.113 191.932 205.752 194.499 207.596C196.46 209.018 202.716 212.707 209.812 215.131C214.574 216.764 215.834 218.081 217.328 221.769C218.915 225.721 211.959 271.298 211.959 271.298C211.959 271.298 211.773 279.623 213.22 280.466C214.48 281.204 229.373 286.104 232.967 287.632C235.582 288.106 238.196 288.37 240.857 288.528L259.624 285.577C259.624 285.577 259.344 245.48 259.671 238.788C259.998 232.202 259.251 228.567 260.278 230.358C261.445 232.36 266.347 250.38 266.347 253.436C266.347 256.492 260.978 283.101 260.978 283.101L268.167 287.58C268.167 287.58 277.878 258.336 278.438 254.437C278.998 250.538 279.138 248.536 277.551 244.69C275.964 240.843 267.094 205.857 267.094 205.857C267.094 205.857 266.207 201.589 259.718 199.376C253.228 197.163 246.926 191.104 239.643 195.846C232.127 200.693 229.046 195.688 229.046 195.688C229.046 195.688 221.623 196.109 217.468 195.372" fill="url(#paint8_linear_1_385)"/>
<path d="M246.319 150.375C247.159 151.112 249.68 153.747 250.567 154.537C251.594 155.433 252.155 156.697 253.042 158.331C253.509 159.174 254.209 161.545 254.536 162.493C256.403 167.868 254.582 170.186 253.135 174.032C251.128 179.301 246.599 180.092 246.226 180.829C242.631 179.512 242.211 179.986 240.624 180.566C238.616 179.038 237.729 176.983 236.655 175.929C237.309 174.875 235.348 165.128 233.901 170.239C233.294 167.92 231.427 163.073 230.633 162.441C229.84 161.808 228.906 161.018 228.999 160.649C229.419 158.489 226.245 158.805 229.046 156.539C231.287 154.695 232.174 150.427 235.115 150.111C236.936 149.9 239.27 149.69 241.137 149.373C242.444 149.163 243.518 149.848 244.638 150.006C245.245 150.058 245.806 150.322 246.319 150.638" fill="url(#paint9_linear_1_385)"/>
<g opacity="0.07">
<path d="M235.862 305.494C234.601 309.604 229.746 317.666 226.618 322.408C223.49 327.15 213.64 337.372 214.247 349.754C214.854 362.136 221.53 393.961 221.53 396.859C221.53 399.757 219.055 413.246 217.188 417.408C215.321 421.571 215.647 425.891 216.581 425.891C217.001 425.891 218.542 426.523 220.689 425.891C222.323 425.417 224.471 427.366 225.358 426.892C226.011 426.576 226.151 424.205 226.151 424.205C226.198 423.204 226.105 422.203 225.825 421.254C225.358 419.726 225.031 418.146 224.798 416.565C224.424 404.92 223.537 377.943 223.724 376.046C224.051 372.516 221.576 354.707 223.817 345.96C226.058 337.214 235.815 305.494 235.862 305.494Z" fill="white"/>
</g>
<g opacity="0.07">
<path d="M259.391 234.152L259.297 275.461C259.297 275.461 260.231 284.207 258.924 285.156C257.617 286.104 252.435 286.842 250.848 286.842C249.774 286.842 235.302 288.739 240.437 285.841C242.724 284.523 257.197 275.408 252.575 266.398C247.953 257.388 250.101 245.901 253.462 238.103C256.823 230.305 259.437 225.089 259.437 225.089L259.391 234.152Z" fill="black"/>
</g>
<path d="M166.302 166.339L161.494 170.291C161.167 170.555 160.747 170.449 160.513 170.133C160.42 170.028 160.373 169.87 160.373 169.712L159.86 161.808L161.12 159.332C161.26 159.015 161.354 158.647 161.307 158.33L160.933 154.431C160.933 154.273 160.887 154.168 160.84 154.01L159.113 146.528C159.066 146.106 159.346 145.738 159.72 145.685L164.948 145C165.322 144.947 165.695 145.263 165.742 145.685V145.738L166.629 165.654C166.629 165.971 166.535 166.181 166.302 166.339Z" fill="white"/>
<path opacity="0.07" d="M231.567 184.412C231.567 184.412 234.975 183.675 236.655 182.199C238.336 180.724 234.555 184.992 233.341 186.678C232.127 188.364 231.567 184.412 231.567 184.412Z" fill="black"/>
<path opacity="0.07" d="M253.602 301.701C253.602 301.701 250.241 317.086 247.206 321.617C243.985 326.465 247.533 348.753 244.545 358.553C241.697 367.827 245.572 387.954 244.872 394.383C244.312 399.652 244.218 410.98 241.744 417.303C240.904 419.463 239.13 421.044 239.13 422.045C239.13 427.683 245.899 424.047 245.899 424.047L246.272 419.042L250.894 374.782L259.437 286.947L253.602 301.701Z" fill="black"/>
</g>
<path d="M477.088 230H452.441C452.441 230 444.773 231.12 444.225 236.721C443.677 242.322 444.406 315.178 444.406 315.178L394.93 314.573C394.93 314.573 390 316.253 390 321.854C390 327.455 393.834 329.695 393.834 329.695L469.004 329.348L477.088 230Z" fill="#BAC6F2"/>
<path d="M477.088 230C477.088 230 484.209 231.12 484.757 242.322C485.304 253.524 484.757 329.135 484.757 329.135L409.658 329.695C409.12 329.698 408.587 329.586 408.094 329.366C407.6 329.146 407.157 328.823 406.793 328.418C405.698 327.186 404.241 325.259 404.241 323.546C404.241 320.527 405.336 315.704 411.361 315.704C417.386 315.704 468.325 315.144 468.325 315.144L469.42 236.732C469.42 236.732 469.42 231.12 477.088 230Z" fill="#B1C1F2"/>
<path d="M445.638 329.505C445.638 329.505 446.963 335.856 442.582 335.856H435.461C434.914 335.856 432.58 332.495 434.021 329.695C435.461 326.895 445.633 329.499 445.633 329.499" fill="#BAC6F2"/>
<path d="M442.582 335.89L442.034 399.146H437.104L436.831 335.526L442.582 335.89Z" fill="#E9EDFA"/>
<path d="M462.848 398.026L415.743 398.586V403.067L462.848 402.507V398.026Z" fill="#E9EDFA"/>
<g clip-path="url(#clip4_1_385)">
<mask id="mask0_1_385" style="mask-type:luminance" maskUnits="userSpaceOnUse" x="121" y="97" width="605" height="370">
<path d="M725.144 97.7671H121.473V466.412H725.144V97.7671Z" fill="white"/>
</mask>
<g mask="url(#mask0_1_385)">
<mask id="mask1_1_385" style="mask-type:luminance" maskUnits="userSpaceOnUse" x="121" y="97" width="605" height="370">
<path d="M725.144 97.7671H121.473V466.412H725.144V97.7671Z" fill="white"/>
</mask>
<g mask="url(#mask1_1_385)">
<path d="M455.94 375.214L449.428 375.277C449.428 375.277 446.604 380.82 445.203 383.785C445.115 383.975 444.862 384.451 444.687 384.794C444.469 385.312 444.306 385.854 444.2 386.411C443.684 389.312 444.01 391.96 445.787 393.809C447.734 395.833 449.194 397.609 452.231 395.522C455.269 393.434 456.062 391.823 456.125 386.829C456.189 381.835 455.965 375.203 455.965 375.203" fill="#4B44BE"/>
<path d="M422.778 375.579L416.835 378.459C416.835 378.459 416.285 384.768 416.095 388.092C416.095 388.309 416.027 388.853 415.993 389.244C415.981 389.813 416.028 390.382 416.134 390.94C416.728 393.82 418.003 396.108 420.31 397.028C422.841 398.032 424.837 399.025 426.847 395.797C428.857 392.568 428.989 390.729 427.203 386.142C425.416 381.555 422.778 375.573 422.778 375.573" fill="#4B44BE"/>
</g>
<path d="M424.214 219.779L442.866 215.895C442.866 215.895 444.424 207.44 443.957 205.939C443.489 204.438 443.051 201.135 440.408 200.126C437.765 199.117 434.212 191.042 425.348 197.457C416.484 203.873 421.264 211.514 421.264 211.514L424.214 219.779Z" fill="url(#paint10_linear_1_385)"/>
<path d="M437.385 202.842C437.385 202.842 428.093 206.736 425.981 207.693C423.868 208.649 422.724 211.418 422.724 211.418C422.724 211.418 421.683 210.747 421.683 212.66C421.683 214.573 422.549 218.88 423.177 219.979C424.262 221.837 425.25 223.761 426.137 225.739C426.993 227.71 426.803 230.68 426.599 231.774C426.21 233.835 417.502 248.266 417.502 248.266L420.729 252.351L424.34 255.813L449.729 253.699C449.729 253.699 440.89 234.907 439.508 231.737C438.885 230.315 439.547 226.865 439.912 225.105C440.243 223.493 440.968 221.469 441.674 220.877C442.379 220.286 443.621 217.628 443.621 216.476C443.621 215.324 443.825 211.683 442.915 212.65C442.672 212.909 441.455 210.848 441.109 209.125C440.515 206.654 439.211 204.453 437.385 202.842Z" fill="url(#paint11_linear_1_385)"/>
<path d="M400.387 306.326C400.387 306.326 392.697 313.82 392.697 316.985C392.697 320.15 394.021 328.505 396.542 333.403C399.063 338.302 414.552 375.541 416.416 378.411C416.737 378.907 423.362 376.91 423.362 376.91C423.362 376.91 420.291 361.633 419.76 358.177C419.229 354.721 411.558 334.27 411.558 332.251C411.558 330.233 412.882 327.353 417.132 326.491C421.381 325.63 430.396 324.473 433.579 325.625C436.762 326.777 450.498 326.629 452.932 329.947C454.475 332.088 452.932 334.519 451.341 342.63C449.749 350.742 450.81 361.945 449.486 365.406C448.162 368.867 448.25 376.318 448.902 376.366C450.679 376.487 455.488 376.931 455.989 376.545C456.87 375.864 461.961 363.519 462.838 361.421C464.22 358.124 468.586 340.057 469.117 335.449C469.647 330.841 472.3 322.486 471.77 320.182C471.239 317.878 459.567 303.763 450.81 301.745C442.053 299.726 414.99 297.427 411.806 299.731C408.623 302.035 400.387 306.326 400.387 306.326Z" fill="url(#paint12_linear_1_385)"/>
<path opacity="0.1" d="M422.569 372.941C422.569 372.941 420.159 360.016 419.473 356.935C418.689 353.421 412.459 337.568 411.534 332.251C410.638 327.131 407.956 334.117 408.755 339.015C409.553 343.914 414.06 352.839 414.323 357.162C414.586 361.485 422.569 372.941 422.569 372.941Z" fill="black"/>
<mask id="mask2_1_385" style="mask-type:luminance" maskUnits="userSpaceOnUse" x="392" y="233" width="84" height="67">
<path d="M446.921 233.349C443.027 233.808 441.333 234.231 440.724 234.437C440.052 235.825 439.299 237.164 438.471 238.448C436.451 241.286 435.487 244.884 434.226 244.99C432.581 245.128 428.78 238.76 426.823 237.243C425.557 236.26 425.426 235.843 424.725 235.505L413.656 236.065C412.735 236.156 411.844 236.469 411.049 236.981C410.253 237.493 409.572 238.191 409.056 239.024C403.98 247.289 392.604 271.787 392.254 277.843C392.001 282.261 401.22 289.036 403.804 289.712C404.856 289.987 406.696 279.111 407.309 278.139L403.444 276.839C404.75 273.725 406.27 270.722 407.99 267.856C408.477 267.074 412.931 259.596 413.447 257.07C413.71 259.538 413.819 262.022 413.773 264.505C413.661 267.528 414.328 270.746 414.328 272.987C414.328 275.227 415.754 282.383 414.245 286.415C412.736 290.446 410.531 299.779 410.531 299.779L448.629 299.557C448.629 299.557 450.377 284.232 450.927 278.129C450.787 276.257 450.748 274.378 450.81 272.501C450.956 264.907 451.005 256.404 450.703 255.062C450.216 252.917 461.577 269.758 464.123 274.366C465.179 276.279 450.688 279.65 449.491 281.141C448.293 282.631 450.713 286.848 450.713 286.848C450.713 286.848 475.999 283.508 475.849 279.307C475.698 275.106 462.297 243.225 456.68 237.671C453.19 234.215 454.091 235.267 451.959 234.252C450.737 233.676 450.898 233.634 448.435 233.428" fill="white"/>
</mask>
<g mask="url(#mask2_1_385)">
<path d="M475.999 231.642H392.001V299.757H475.999V231.642Z" fill="url(#paint13_linear_1_385)"/>
</g>
<path opacity="0.07" d="M426.487 235.066C426.039 234.427 424.744 235.405 425.913 233.481C427.86 230.263 426.132 225.338 426.132 225.338C426.132 225.338 427.105 227.578 430.512 227.277C433.92 226.976 434.499 225.887 430.746 230.194C426.993 234.501 425.908 234.369 426.477 235.088" fill="black"/>
<mask id="mask3_1_385" style="mask-type:luminance" maskUnits="userSpaceOnUse" x="121" y="97" width="605" height="370">
<path d="M725.144 97.7671H121.473V466.412H725.144V97.7671Z" fill="white"/>
</mask>
<g mask="url(#mask3_1_385)">
<g opacity="0.07">
<mask id="mask4_1_385" style="mask-type:luminance" maskUnits="userSpaceOnUse" x="396" y="309" width="67" height="22">
<path d="M462.507 309.106H396.474V330.407H462.507V309.106Z" fill="white"/>
</mask>
<g mask="url(#mask4_1_385)">
<path d="M403.97 309.259L457.313 308.355C457.313 308.355 446.118 314.644 447.768 317.989C449.934 322.396 445.587 327.332 439.464 326.518C434.285 325.831 433.214 324.679 430.001 324.975C421.673 325.741 415.949 325.213 415.121 323.839C408.253 312.387 403.984 309.259 403.984 309.259" fill="black"/>
</g>
</g>
<g opacity="0.07">
<mask id="mask5_1_385" style="mask-type:luminance" maskUnits="userSpaceOnUse" x="412" y="239" width="14" height="37">
<path d="M425.47 239.225H412.907V275.006H425.47V239.225Z" fill="white"/>
</mask>
<g mask="url(#mask5_1_385)">
<path d="M416.523 255.464C417.438 257.25 418.319 258.243 417.779 259.787C416.713 262.83 416.465 266.434 419.775 269.325C422.009 271.275 421.61 274.371 423.308 274.398C424.623 275.238 420.768 274.99 420.768 274.99H416.913L414.479 274.842C414.508 274.255 413.744 266.487 413.778 265.425C413.9 261.684 413.968 259.491 413.69 257.852C413.203 255.083 413.345 256.124 414.445 254.185C414.849 253.482 416.07 254.824 416.538 255.469" fill="black"/>
</g>
</g>
</g>
<mask id="mask6_1_385" style="mask-type:luminance" maskUnits="userSpaceOnUse" x="121" y="97" width="605" height="370">
<path d="M725.144 97.7671H121.473V466.412H725.144V97.7671Z" fill="white"/>
</mask>
<g mask="url(#mask6_1_385)">
<path d="M402.266 277.727C402.266 277.727 402.227 275.206 404.515 275.085C406.803 274.963 455.429 275.042 455.429 275.042C455.429 275.042 457.566 275.317 457.639 277.209C457.712 279.101 457.712 306.971 457.712 306.971C457.718 307.266 457.669 307.559 457.567 307.832C457.464 308.105 457.312 308.353 457.118 308.559C456.924 308.766 456.693 308.927 456.439 309.033C456.186 309.139 455.915 309.187 455.643 309.174C453.541 309.217 403.97 309.254 403.97 309.254C403.97 309.254 402.12 308.725 402.154 306.733C402.188 304.741 402.266 277.722 402.266 277.722" fill="white"/>
</g>
<mask id="mask7_1_385" style="mask-type:luminance" maskUnits="userSpaceOnUse" x="428" y="289" width="5" height="6">
<path d="M428.03 292.143C428.03 292.595 428.153 293.037 428.385 293.412C428.616 293.788 428.945 294.08 429.329 294.253C429.714 294.425 430.137 294.47 430.545 294.382C430.953 294.293 431.327 294.075 431.621 293.756C431.915 293.436 432.115 293.028 432.196 292.585C432.276 292.142 432.234 291.683 432.074 291.266C431.914 290.849 431.644 290.493 431.297 290.243C430.951 289.992 430.544 289.859 430.128 289.86C429.852 289.86 429.579 289.919 429.324 290.034C429.069 290.149 428.838 290.317 428.643 290.529C428.448 290.741 428.293 290.993 428.188 291.27C428.083 291.547 428.029 291.844 428.03 292.143Z" fill="white"/>
</mask>
<g mask="url(#mask7_1_385)">
<path d="M432.231 289.86H428.03V294.421H432.231V289.86Z" fill="url(#paint14_linear_1_385)"/>
</g>
</g>
</g>
<g clip-path="url(#clip5_1_385)">
<path d="M302.503 406.014L329.071 303.308L334.566 346.83V406.014H342.808C342.808 406.014 353.455 313.882 353.496 306.001C353.537 297.332 350.738 274.831 350.738 274.831L314.236 272.396C314.236 272.396 304.672 303.961 304.466 322.858C304.323 335.94 293.758 403.842 293.758 403.842L302.503 406.014Z" fill="url(#paint15_linear_1_385)"/>
<path d="M367.556 252.671C367.556 252.671 372.538 252.413 373.999 252.671C375.46 252.929 379.089 255.067 376.562 256.236C374.035 257.405 366.259 256.971 366.259 256.971L367.556 252.671Z" fill="url(#paint16_linear_1_385)"/>
<path d="M384.4 246.266C384.4 246.266 389.362 245.823 390.833 246.028C392.304 246.232 398.137 244.713 395.174 248.604C393.514 250.781 384.41 250.732 384.41 250.732L384.4 246.266Z" fill="url(#paint17_linear_1_385)"/>
<path d="M318.814 213.986C319.047 213.86 319.31 213.795 319.578 213.796H323.304C324.545 213.851 325.779 214 326.995 214.244C327.181 214.279 327.369 214.297 327.559 214.297C329.635 214.297 329.886 214.297 330.275 214.297C332.649 214.297 332.731 213.776 333.864 213.767C336.165 213.767 337.313 213.742 338.359 213.815C339.965 213.866 341.557 214.115 343.095 214.556C345.658 215.413 348.472 217.176 351.01 220.653C355.464 226.746 353.808 225.197 356.3 229.97C357.991 233.199 359.047 244.732 367.725 245.75C371.764 246.237 371.662 246.447 376.629 246.676C381.089 246.88 383.344 246.237 385.256 246.237C388.531 246.237 384.589 250.747 384.589 250.747C381.36 250.971 367.966 254.122 366.244 252.578C364.317 250.849 353.993 247.995 353.209 247.012C349.744 242.653 349.656 242.331 349.011 241.26C348.956 241.18 348.914 241.093 348.888 241.002C348.375 239.721 347.498 238.527 347.668 242.351C347.709 243.276 351.451 246.072 353.204 247.012C353.583 247.216 367.495 252.622 367.556 252.69C367.751 252.9 368.663 257.166 366.239 256.991C364.05 256.83 348.078 253.441 348.108 253.908C348.231 256.032 349.728 267.545 350.738 274.851C339.02 274.529 326.057 273.083 314.236 272.415C314.236 272.415 319.009 257.804 314.852 246.296C311.622 237.325 307.45 220.225 318.814 213.986Z" fill="url(#paint18_linear_1_385)"/>
<path d="M323.304 213.796L323.817 208.287L334.34 191.426L340.491 187.764C340.491 187.764 341.091 201.503 336.811 206.578C336.811 206.578 333.264 207.839 333.464 209.408C333.664 210.976 333.823 213.791 333.823 213.791C334.002 213.742 332.92 213.976 331.429 214.278C331.085 214.351 328.973 214.39 328.743 214.385L327.266 214.288C327.051 214.288 326.713 214.205 326.621 214.19C325.011 213.952 323.371 213.796 323.304 213.796Z" fill="url(#paint19_linear_1_385)"/>
<path d="M323.714 209.301C323.714 209.301 333.715 203.602 333.694 200.787C333.674 197.972 334.417 195.717 337.185 193.598C340.983 190.676 341.942 185.153 339.148 182.83C336.355 180.507 328.076 176.752 320.572 179.737C320.572 179.737 318.998 174.317 313.57 174.005C310.495 173.83 300.473 177.794 300.191 188.616C300.012 195.459 295.783 206.783 293.251 211.463C288.125 220.892 300.033 210.357 304.046 203.841C309.454 195.074 316.036 183.687 316.036 183.687C316.036 183.687 311.935 189.045 311.504 192.756C311.053 196.647 310.828 201.167 323.714 209.301Z" fill="url(#paint20_linear_1_385)"/>
<path d="M310.11 411.001C305.215 409.652 302.688 404.373 302.688 404.373L293.758 403.837C293.758 403.837 293.133 409.297 292.897 412.268C292.579 416.203 293.364 417.961 296.373 417.747C300.32 417.464 316.43 418.721 318.957 417.323C322.248 415.497 314.693 412.267 310.11 410.991" fill="#4B49BB"/>
<path d="M351.348 410.558C346.453 409.209 343.116 403.394 343.116 403.394H334.607C334.607 403.394 334.371 408.853 334.135 411.824C333.817 415.755 334.602 417.513 337.605 417.303C341.558 417.021 357.668 418.277 360.195 416.88C363.481 415.053 355.931 411.824 351.348 410.548" fill="#4B49BB"/>
<path opacity="0.07" d="M329.071 303.328L302.688 404.373L293.758 403.837C293.758 403.837 305.189 384.945 305.804 366.516C306.65 341.19 315.544 336.246 316.379 322.195C317.215 308.144 329.071 303.328 329.071 303.328Z" fill="black"/>
<path opacity="0.07" d="M314.236 272.391C314.236 272.391 319.875 260.551 315.856 247.552C311.786 234.441 308.362 227.136 316.369 216.177C319.88 211.38 313.186 237.992 324.622 242.848C331.044 245.575 325.037 258.145 330.67 263.103C334.021 266.012 336.359 269.823 337.37 274.028L314.236 272.391Z" fill="black"/>
</g>
</g>
<defs>
<linearGradient id="paint0_linear_1_385" x1="307" y1="42" x2="307" y2="418" gradientUnits="userSpaceOnUse">
<stop stop-color="#57007B"/>
<stop offset="1" stop-color="#F8F8FF" stop-opacity="0"/>
</linearGradient>
<linearGradient id="paint1_linear_1_385" x1="321.717" y1="371.779" x2="321.717" y2="476.003" gradientUnits="userSpaceOnUse">
<stop stop-color="#57007B"/>
<stop offset="1" stop-color="#F5F5FC" stop-opacity="0"/>
</linearGradient>
<linearGradient id="paint2_linear_1_385" x1="24.1345" y1="374.534" x2="87.0901" y2="374.534" gradientUnits="userSpaceOnUse">
<stop stop-color="#4B45BD"/>
<stop offset="1" stop-color="#58CAEA"/>
</linearGradient>
<linearGradient id="paint3_linear_1_385" x1="12.781" y1="234.375" x2="101.134" y2="234.375" gradientUnits="userSpaceOnUse">
<stop stop-color="#F87B58"/>
<stop offset="0.41" stop-color="#F89453"/>
<stop offset="0.71" stop-color="#F8C548"/>
<stop offset="1" stop-color="#F89C51"/>
</linearGradient>
<linearGradient id="paint4_linear_1_385" x1="4.80691" y1="264.635" x2="105.585" y2="264.635" gradientUnits="userSpaceOnUse">
<stop stop-color="#E5A4ED"/>
<stop offset="1" stop-color="#7A5BF5"/>
</linearGradient>
<linearGradient id="paint5_linear_1_385" x1="41.9798" y1="180.262" x2="71.5278" y2="180.262" gradientUnits="userSpaceOnUse">
<stop stop-color="#4B45BD"/>
<stop offset="1" stop-color="#58CAEA"/>
</linearGradient>
<linearGradient id="paint6_linear_1_385" x1="205.985" y1="345.592" x2="259.531" y2="345.592" gradientUnits="userSpaceOnUse">
<stop stop-color="#4B45BD"/>
<stop offset="1" stop-color="#58CAEA"/>
</linearGradient>
<linearGradient id="paint7_linear_1_385" x1="153.62" y1="224.534" x2="275.217" y2="224.534" gradientUnits="userSpaceOnUse">
<stop stop-color="#F87B58"/>
<stop offset="0.63" stop-color="#F89453"/>
<stop offset="0.81" stop-color="#F8C548"/>
<stop offset="0.94" stop-color="#F89952"/>
<stop offset="1" stop-color="#F89C51"/>
</linearGradient>
<linearGradient id="paint8_linear_1_385" x1="161.027" y1="227.346" x2="278.825" y2="227.346" gradientUnits="userSpaceOnUse">
<stop stop-color="#E5A4ED"/>
<stop offset="1" stop-color="#7A5BF5"/>
</linearGradient>
<linearGradient id="paint9_linear_1_385" x1="227.879" y1="165.081" x2="255.33" y2="165.081" gradientUnits="userSpaceOnUse">
<stop stop-color="#4583BD"/>
<stop offset="1" stop-color="#58CAEA"/>
</linearGradient>
<linearGradient id="paint10_linear_1_385" x1="337.531" y1="79.517" x2="298.629" y2="79.517" gradientUnits="userSpaceOnUse">
<stop stop-color="#4B45BD"/>
<stop offset="1" stop-color="#58CAEA"/>
</linearGradient>
<linearGradient id="paint11_linear_1_385" x1="417.502" y1="229.327" x2="449.729" y2="229.327" gradientUnits="userSpaceOnUse">
<stop stop-color="#F87B58"/>
<stop offset="0.41" stop-color="#F89453"/>
<stop offset="0.71" stop-color="#F8C548"/>
<stop offset="1" stop-color="#F89C51"/>
</linearGradient>
<linearGradient id="paint12_linear_1_385" x1="400.197" y1="354.24" x2="461.738" y2="354.24" gradientUnits="userSpaceOnUse">
<stop stop-color="#4B45BD"/>
<stop offset="1" stop-color="#58CAEA"/>
</linearGradient>
<linearGradient id="paint13_linear_1_385" x1="442.056" y1="301.57" x2="516.057" y2="254.128" gradientUnits="userSpaceOnUse">
<stop stop-color="#E5A4ED"/>
<stop offset="1" stop-color="#7A5BF5"/>
</linearGradient>
<linearGradient id="paint14_linear_1_385" x1="432.999" y1="292.069" x2="428.834" y2="292.069" gradientUnits="userSpaceOnUse">
<stop stop-color="#59C2E9"/>
<stop offset="1" stop-color="#5BD3EF"/>
</linearGradient>
<linearGradient id="paint15_linear_1_385" x1="198.709" y1="176.28" x2="234.59" y2="176.28" gradientUnits="userSpaceOnUse">
<stop stop-color="#4B45BD"/>
<stop offset="1" stop-color="#58CAEA"/>
</linearGradient>
<linearGradient id="paint16_linear_1_385" x1="366.239" y1="254.804" x2="377.423" y2="254.804" gradientUnits="userSpaceOnUse">
<stop stop-color="#F87B58"/>
<stop offset="0.5" stop-color="#F8C548"/>
<stop offset="1" stop-color="#F89C51"/>
</linearGradient>
<linearGradient id="paint17_linear_1_385" x1="384.872" y1="248.517" x2="396.623" y2="248.022" gradientUnits="userSpaceOnUse">
<stop stop-color="#F87B58"/>
<stop offset="0.5" stop-color="#F8C548"/>
<stop offset="1" stop-color="#F89C51"/>
</linearGradient>
<linearGradient id="paint18_linear_1_385" x1="230.2" y1="175.973" x2="301.76" y2="123.553" gradientUnits="userSpaceOnUse">
<stop stop-color="#E5A4ED"/>
<stop offset="1" stop-color="#7A5BF5"/>
</linearGradient>
<linearGradient id="paint19_linear_1_385" x1="323.304" y1="201.084" x2="340.537" y2="201.084" gradientUnits="userSpaceOnUse">
<stop stop-color="#F87B58"/>
<stop offset="0.5" stop-color="#F8C548"/>
<stop offset="1" stop-color="#F89C51"/>
</linearGradient>
<linearGradient id="paint20_linear_1_385" x1="258.947" y1="92.5453" x2="217.98" y2="92.5453" gradientUnits="userSpaceOnUse">
<stop stop-color="#4B45BD"/>
<stop offset="1" stop-color="#58CAEA"/>
</linearGradient>
<clipPath id="clip0_1_385">
<rect width="630" height="476" fill="white" transform="translate(0.5)"/>
</clipPath>
<clipPath id="clip1_1_385">
<rect width="120" height="107" fill="white" transform="translate(92 104)"/>
</clipPath>
<clipPath id="clip2_1_385">
<rect width="105" height="300.484" fill="white" transform="translate(1 170)"/>
</clipPath>
<clipPath id="clip3_1_385">
<rect width="131" height="284" fill="white" transform="translate(148 145)"/>
</clipPath>
<clipPath id="clip4_1_385">
<rect width="84" height="203" fill="white" transform="translate(392 195)"/>
</clipPath>
<clipPath id="clip5_1_385">
<rect width="104" height="244" fill="white" transform="translate(292 174)"/>
</clipPath>
</defs>
</svg>
